<svg xmlns="http://www.w3.org/2000/svg" width="336.866" height="360.006" viewBox="0 0 336.866 360.006"><g transform="translate(-816.463 -2595)"><g transform="translate(816.463 2595)"><path d="M589.73,504.006H368.735a19.779,19.779,0,0,1-19.757-19.757V163.757A19.779,19.779,0,0,1,368.735,144H589.73a19.779,19.779,0,0,1,19.757,19.757V484.249a19.779,19.779,0,0,1-19.757,19.757Z" transform="translate(-348.978 -144)" fill="#0d3380"/><path d="M599.369,500.182H377.6a6.1,6.1,0,0,1-6.09-6.09V171.477a6.1,6.1,0,0,1,6.09-6.09H599.369a6.1,6.1,0,0,1,6.09,6.09V494.092a6.1,6.1,0,0,1-6.09,6.09Z" transform="translate(-358.228 -152.782)" fill="#fff"/><path d="M398.962,372.758c.619-8.406,1.641-18.74,9.958-23.231,3.924-2.119,8.08-1.369,12.025.282,3.813,1.6,7.4,3.5,11.51,4.249a33.412,33.412,0,0,0,20.771-3.115,31.925,31.925,0,0,0,14.693-15.038c1.575-3.32,2.876-6.918,5.2-9.815a10.918,10.918,0,0,1,10.093-4.177c8.721,1.077,14.508,8.718,21.46,13.216,3.344,2.163,7.183,3.743,11.231,3.549a19.446,19.446,0,0,0,11.1-4.731c6.753-5.445,10.445-13.867,17.531-18.941a23.545,23.545,0,0,1,37.068,15.4,22.964,22.964,0,0,1,.25,5.765c-.089,1.135,1.68,1.129,1.768,0a26.034,26.034,0,0,0-8.885-21.358,25.6,25.6,0,0,0-33.85.914c-3.278,3.023-5.863,6.686-8.63,10.157-2.7,3.387-5.677,6.658-9.465,8.845a14.621,14.621,0,0,1-12.221,1.39c-4.089-1.38-7.554-4.222-10.826-6.943-3.373-2.805-6.729-5.612-10.783-7.394-3.769-1.657-8.092-2.461-12.016-.829-3.538,1.471-5.879,4.526-7.614,7.829-1.761,3.353-3.016,6.969-5.071,10.166a28.826,28.826,0,0,1-7.518,7.824,32.287,32.287,0,0,1-20.829,5.951,32.633,32.633,0,0,1-11.349-3.23c-4.03-1.842-8.274-3.758-12.808-2.866a15.883,15.883,0,0,0-9.487,6.6c-2.638,3.665-3.8,8.158-4.4,12.571-.316,2.309-.5,4.631-.668,6.954-.084,1.135,1.685,1.13,1.768,0Z" transform="translate(-368.775 -211.702)" fill="#e4e4e4"/><ellipse cx="1.681" cy="1.681" rx="1.681" ry="1.681" transform="translate(127.733 4.37)" fill="#fff"/><path d="M595.953,417.318H396.6a.624.624,0,0,1-.624-.624l.3-.694,199.676.07a.624.624,0,1,1,0,1.248h0Z" transform="translate(-368.275 -255.687)" fill="#01044e"/><rect width="1.224" height="3.487" transform="translate(65.02 157.266)" fill="#01044e"/><rect width="1.224" height="23.526" transform="translate(101.654 137.227)" fill="#01044e"/><rect width="1.224" height="51.816" transform="translate(138.364 108.937)" fill="#01044e"/><rect width="1.224" height="75.981" transform="translate(175.073 84.772)" fill="#01044e"/><rect width="1.224" height="20.579" transform="translate(211.783 140.174)" fill="#01044e"/><ellipse cx="3.743" cy="3.743" rx="3.743" ry="3.743" transform="translate(172.017 73.05)" fill="#ffd900"/><ellipse cx="3.743" cy="3.743" rx="3.743" ry="3.743" transform="translate(135.897 95.009)" fill="#ffd900"/><ellipse cx="3.743" cy="3.743" rx="3.743" ry="3.743" transform="translate(208.727 129.536)" fill="#115df6"/><path d="M520.832,607.025V562.857c0-.566.659-1.026,1.472-1.026h6.567c.813,0,1.472.459,1.472,1.026h0V607.14Z" transform="translate(-419.544 -315.567)" fill="#01044e"/><path d="M557.633,614.564V580.817c0-.544.659-.986,1.472-.986h6.567c.813,0,1.471.441,1.471.986h0v33.675Z" transform="translate(-434.655 -322.958)" fill="#01044e"/><path d="M631.232,626.394V609.23c-.057-.205.6-.383,1.472-.4h6.567c.873.016,1.529.193,1.472.4v17.209Z" transform="translate(-464.874 -334.866)" fill="#01044e"/><path d="M484.032,626.394V609.23c0-.22.659-.4,1.472-.4h6.567c.813,0,1.472.179,1.472.4v17.209Z" transform="translate(-404.433 -334.866)" fill="#01044e"/><path d="M594.433,579.255V496.371a1.745,1.745,0,0,1,1.472-1.925h6.567a1.745,1.745,0,0,1,1.472,1.925v83.1Z" transform="translate(-449.766 -287.898)" fill="#ffd900"/><path d="M591.5,639.179H442.979a.589.589,0,1,1,0-1.179H591.5a.589.589,0,1,1,0,1.179Z" transform="translate(-387.334 -346.843)" fill="#01044e"/><ellipse cx="3.743" cy="3.743" rx="3.743" ry="3.743" transform="translate(62.056 145.904)" fill="#115df6"/><ellipse cx="3.743" cy="3.743" rx="3.743" ry="3.743" transform="translate(98.598 125.275)" fill="#115df6"/></g><g transform="translate(1026.002 2691.13)"><g transform="translate(11.414 0)"><path d="M676.18,419.855a5.269,5.269,0,0,0,6.306-5.05L722.3,377.336l-8.957-7.145-36.382,39.173a5.3,5.3,0,0,0-.776,10.492Z" transform="translate(-665.761 -313.843)" fill="#ffb7b7"/><path d="M742.049,378.32l-7.745-9.076a2.363,2.363,0,0,1,.543-3.536l10.083-6.312a6.561,6.561,0,0,1,8.488,10.007l-7.792,8.937a2.362,2.362,0,0,1-3.577-.02Z" transform="translate(-691.156 -308.771)" fill="#d6d6d6"/><path d="M488.009,503.9h-9.733l-4.63-37.543h14.365Z" transform="translate(-457.943 -249.46)" fill="#ffb7b7"/><path d="M694.849,713.512H663.465v-.4A12.216,12.216,0,0,1,675.68,700.9h19.17Z" transform="translate(-662.301 -449.637)" fill="#01044e"/><path d="M620.018,503.9h-9.733l-4.631-37.543H620.02Z" transform="translate(-512.148 -249.46)" fill="#ffb7b7"/><path d="M826.858,713.512H795.474v-.4A12.216,12.216,0,0,1,807.688,700.9h19.17Z" transform="translate(-716.505 -449.637)" fill="#01044e"/><path d="M743.179,396.117l9.811-36.249-12.728-7.154H722.5l-6.91,7.393s-11.545,8.032-8.75,16.932l4.508,20.271L704.449,429.5l-34.737,48.172-8.223,47.318,32.369,8.486,35-68.92,16.971,76.313,31.571-1.588-10.879-92.529s-3.1-28.188-19.357-45.788Z" transform="translate(-661.49 -306.667)" fill="#051dde"/><path d="M821.082,439.384a5.269,5.269,0,0,0-.675-8.051l-7.612-51.357-10.926,3.45,10.937,49.462a5.3,5.3,0,0,0,8.276,6.5Z" transform="translate(-719.131 -317.861)" fill="#ffb7b7"/><path d="M813.507,379.551l-11.853,1.367a2.362,2.362,0,0,1-2.632-2.423l.384-11.889a6.561,6.561,0,1,1,13.04-1.465l3.072,11.452a2.362,2.362,0,0,1-2.011,2.958Z" transform="translate(-717.962 -309.376)" fill="#d6d6d6"/><path d="M746.36,310.326V295.052a20.466,20.466,0,0,1,40.932,0v15.273a2.752,2.752,0,0,1-2.749,2.749H749.109a2.752,2.752,0,0,1-2.749-2.749Z" transform="translate(-696.339 -274.587)" fill="#01044e"/><ellipse cx="15.005" cy="15.005" rx="15.005" ry="15.005" transform="translate(51.277 8.123)" fill="#ffb7b7"/><path d="M738.145,300.1a16.208,16.208,0,0,1,16.189-16.189h3.055A16.207,16.207,0,0,1,773.579,300.1v.305h-6.455l-2.2-6.165-.44,6.165h-3.336l-1.111-3.111-.222,3.111H738.145Z" transform="translate(-692.966 -278.417)" fill="#01044e"/><path d="M771.075,323.345a2.708,2.708,0,0,1-.215-2.876c3.237-6.157,7.769-17.534,1.753-24.55l-.432-.5h17.465v26.221l-15.865,2.8a2.807,2.807,0,0,1-.487.043,2.738,2.738,0,0,1-2.218-1.133Z" transform="translate(-706.269 -283.139)" fill="#01044e"/></g><g transform="matrix(0.921, -0.391, 0.391, 0.921, 0, 89.29)"><g transform="translate(0 0)"><path d="M17.355,8.271h-.191V3.032A3.032,3.032,0,0,0,14.132,0H3.032A3.032,3.032,0,0,0,0,3.032V31.774a3.032,3.032,0,0,0,3.032,3.032h11.1a3.032,3.032,0,0,0,3.032-3.032V12h.191Z" fill="#01044e"/><path d="M13.417,0H11.969a1.076,1.076,0,0,1-1,1.482H4.614A1.076,1.076,0,0,1,3.618,0H2.264A2.264,2.264,0,0,0,0,2.264v28.7a2.264,2.264,0,0,0,2.264,2.264H13.417a2.264,2.264,0,0,0,2.264-2.264h0V2.264A2.264,2.264,0,0,0,13.417,0Z" transform="translate(0.837 0.789)" fill="#fff"/><path d="M5.424,0A5.424,5.424,0,1,1,0,5.424,5.424,5.424,0,0,1,5.424,0Z" transform="translate(3.254 11.355)" fill="#051dde"/><path d="M3.246,2.061,1.9,3.45a.307.307,0,0,1-.225.091h0a.309.309,0,0,1-.225-.091L.094,2.061.08,2.047a.3.3,0,0,1,.014-.421.332.332,0,0,1,.455,0l.8.835V.308a.322.322,0,0,1,.644,0V2.461l.8-.835a.333.333,0,0,1,.455,0l.014.014A.3.3,0,0,1,3.246,2.061Z" transform="translate(7.039 15.088)" fill="#fff"/></g></g></g></g></svg>