<svg xmlns="http://www.w3.org/2000/svg" xmlns:xlink="http://www.w3.org/1999/xlink" width="559.127" height="744.987" viewBox="0 0 559.127 744.987"><defs><linearGradient id="a" x1="0.5" y1="1" x2="0.52" y2="-0.031" gradientUnits="objectBoundingBox"><stop offset="0" stop-color="#fff" stop-opacity="0"/><stop offset="0.675" stop-color="#fff" stop-opacity="0"/><stop offset="1" stop-color="#fff" stop-opacity="0.8"/></linearGradient><linearGradient id="b" x1="1" x2="0.5" y2="1" gradientUnits="objectBoundingBox"><stop offset="0" stop-color="#02b6ff"/><stop offset="0.507" stop-color="#5fd1ff" stop-opacity="0.698"/><stop offset="1" stop-color="#08b8ff" stop-opacity="0"/><stop offset="1" stop-color="#fff" stop-opacity="0"/></linearGradient><linearGradient id="c" x1="1" x2="0.5" y2="1" gradientUnits="objectBoundingBox"><stop offset="0" stop-color="#02b6ff"/><stop offset="0.02" stop-color="#08b8ff" stop-opacity="0.98"/><stop offset="0.302" stop-color="#5fd1ff" stop-opacity="0.698"/><stop offset="0.551" stop-color="#a3e5ff" stop-opacity="0.451"/><stop offset="0.757" stop-color="#d5f3ff" stop-opacity="0.243"/><stop offset="0.913" stop-color="#f4fcff" stop-opacity="0.086"/><stop offset="1" stop-color="#fff" stop-opacity="0"/></linearGradient><linearGradient id="d" x1="1" x2="1" y2="1.015" gradientUnits="objectBoundingBox"><stop offset="0" stop-color="#5333ed"/><stop offset="0.922" stop-color="#5333ed" stop-opacity="0"/><stop offset="1" stop-color="#5333ed" stop-opacity="0"/></linearGradient><linearGradient id="e" x1="0" x2="0" xlink:href="#c"/><linearGradient id="f" x1="0.147" y1="-1.239" x2="0.92" y2="0.403" gradientUnits="objectBoundingBox"><stop offset="0" stop-color="#120667" stop-opacity="0.698"/><stop offset="1" stop-color="#120667" stop-opacity="0"/></linearGradient><linearGradient id="h" x1="0.5" y1="1.517" x2="0.5" y2="-0.029" gradientUnits="objectBoundingBox"><stop offset="0" stop-color="#fff" stop-opacity="0"/><stop offset="0.493" stop-color="#fff" stop-opacity="0.447"/><stop offset="1" stop-color="#fff" stop-opacity="0"/></linearGradient><linearGradient id="i" x1="0.082" y1="0.339" x2="0.716" y2="1.28" gradientUnits="objectBoundingBox"><stop offset="0" stop-color="#120667"/><stop offset="1" stop-color="#120667" stop-opacity="0"/></linearGradient><linearGradient id="j" x1="0.5" x2="0.5" y2="1" gradientUnits="objectBoundingBox"><stop offset="0" stop-color="#00b6ff" stop-opacity="0"/><stop offset="0.483" stop-color="#00b4fd" stop-opacity="0.561"/><stop offset="1" stop-color="#00b3fb"/><stop offset="1" stop-color="#005b80"/></linearGradient><linearGradient id="k" x1="0.5" x2="0.5" y2="1" gradientUnits="objectBoundingBox"><stop offset="0" stop-color="#c2d3eb" stop-opacity="0"/><stop offset="1" stop-color="#16347b" stop-opacity="0.518"/></linearGradient><linearGradient id="l" y1="-0.01" x2="1" y2="1.041" gradientUnits="objectBoundingBox"><stop offset="0" stop-color="#5333ed" stop-opacity="0"/><stop offset="0.692" stop-color="#5333ed" stop-opacity="0.765"/><stop offset="1" stop-color="#5333ed"/></linearGradient><linearGradient id="m" x1="0.5" y1="0.146" x2="1" y2="1" gradientUnits="objectBoundingBox"><stop offset="0" stop-color="#5333ed" stop-opacity="0"/><stop offset="1" stop-color="#5333ed"/></linearGradient><linearGradient id="n" x1="0.5" x2="0.5" y2="1" gradientUnits="objectBoundingBox"><stop offset="0" stop-color="#02b6ff" stop-opacity="0"/><stop offset="1" stop-color="#02aff5"/><stop offset="1" stop-color="#015b80"/></linearGradient><linearGradient id="o" x1="1" y1="1.014" x2="1" y2="-0.011" gradientUnits="objectBoundingBox"><stop offset="0" stop-color="#c2d3eb" stop-opacity="0"/><stop offset="0.187" stop-color="#c2d3eb" stop-opacity="0.565"/><stop offset="0.502" stop-color="#c2d3eb" stop-opacity="0.804"/><stop offset="1" stop-color="#c2d3eb"/></linearGradient><linearGradient id="p" x1="0.5" x2="0.5" y2="1" gradientUnits="objectBoundingBox"><stop offset="0" stop-color="#02b6ff" stop-opacity="0"/><stop offset="1" stop-color="#02acf1"/><stop offset="1" stop-color="#015b80"/></linearGradient><linearGradient id="q" x1="-0.41" y1="-0.514" x2="0.905" y2="0.787" gradientUnits="objectBoundingBox"><stop offset="0" stop-color="#02004f" stop-opacity="0.898"/><stop offset="0.193" stop-color="#02004f" stop-opacity="0.898"/><stop offset="1" stop-color="#120667" stop-opacity="0"/></linearGradient></defs><g transform="translate(-26.192 0.5)"><path d="M433.189,601.2V786.214H204.9V610.507L229,624.373a37.78,37.78,0,0,0,24.569,4.653Z" transform="translate(-12.393 -41.726)" fill="url(#a)"/><g transform="translate(363.84 568.222)" opacity="0.5"><path d="M389,610.6h.838V786.866H389Z" transform="translate(-389 -610.6)" fill="url(#b)"/></g><g transform="translate(314.702 576.039)" opacity="0.4"><path d="M336.945,787.448l-.745-.745V619l.745.745Z" transform="translate(-336.2 -619)" fill="url(#c)"/></g><g transform="translate(261.468 583.578)" opacity="0.5"><path d="M279,627.1h.931V787.079H279Z" transform="translate(-279 -627.1)" fill="url(#d)"/></g><path d="M247.9,630.7h.931V788.259H247.9Z" transform="translate(-15.375 -43.772)" fill="url(#e)"/><path d="M573.144,387.1,393.621,283.424a37.165,37.165,0,0,0-24.569-4.56L114.8,318.231a37.651,37.651,0,0,0-28.385,21.4L28.9,463.226a28.933,28.933,0,0,0,11.726,37.226L192.507,588.12l24.1,13.867a37.78,37.78,0,0,0,24.569,4.653L420.8,578.813l74.638-11.54a37.651,37.651,0,0,0,28.385-21.4l59.189-127.406A24.307,24.307,0,0,0,573.144,387.1ZM224.056,395.94c44.764-25.872,117.262-25.872,162.027,0s44.764,67.751,0,93.531c-44.671,25.779-117.262,25.779-162.027,0C179.292,463.6,179.292,421.719,224.056,395.94Z" transform="translate(0 -19.34)" fill="#2561ed" opacity="0.3"/><path d="M190.639,475.4l-11.912,6.794-69.427-40.2,11.912-6.887Z" transform="translate(-5.763 -30.208)" fill="url(#f)"/><path d="M190.639,475.4l-11.912,6.794-69.427-40.2,11.912-6.887Z" transform="translate(365.66 -51.208)" fill="url(#f)"/><g transform="translate(142.996 267.9)" opacity="0.3"><path d="M166.032,296.183v14.332l-14.332-8.19.093-14.425Z" transform="translate(-151.7 -287.9)" fill="#0f06dd"/></g><g transform="translate(121.033 255.057)" opacity="0.3"><path d="M142.432,282.29v14.425L128.1,288.432V274.1Z" transform="translate(-128.1 -274.1)" fill="#0f06dd"/></g><g transform="translate(99.535 242.586)" opacity="0.3"><path d="M119.239,268.983v14.425L105,275.125V260.7Z" transform="translate(-105 -260.7)" fill="#0f06dd"/></g><g transform="translate(129.967 272.367)" opacity="0.7"><path d="M190.933,299.308V292.7L137.7,323.318v48.3l53.233-30.712Z" transform="translate(-137.7 -292.7)" fill="#0f06dd" opacity="0.3"/></g><path d="M432.72,0H203.5V424.378c0,16.938,11.168,33.876,33.6,46.812,44.764,25.872,117.262,25.872,162.027,0,22.336-12.936,33.6-29.874,33.6-46.812V0Z" transform="translate(-12.296 -0.035)" fill="url(#h)"/><path d="M548.189,585.327l-32.2,4.653L495.7,579.929,509.846,566.9Z" transform="translate(-32.559 -39.348)" opacity="0.3" fill="url(#i)"/><g transform="translate(311.91 -0.5)" opacity="0.3"><path d="M335.62-.221l1.024,490.733h-2.42L333.2-.5Z" transform="translate(-333.2 0.5)" fill="url(#j)"/></g><g transform="translate(277.373 -0.035)"><path d="M363.013,486.545l-.093-85.062S295.169,283.942,296.1,283.849L297.309,0h.838l-1.21,283.849L363.665,401.2a.325.325,0,0,0,.093.186l.093,84.969-.838.186Z" transform="translate(-296.09)" fill="url(#k)"/></g><g transform="translate(260.072 -0.128)" opacity="0.6"><path d="M278.617-.1V485.421l-1.117-.651V-.1h1.117Z" transform="translate(-277.5 0.1)" fill="url(#l)"/></g><g transform="translate(365.143 -0.035)" opacity="0.5"><path d="M391.889,481.054,390.4,0h1.21L393.1,480.4Z" transform="translate(-390.4)" fill="url(#m)"/></g><g transform="translate(387.572 -0.035)"><path d="M415.431,470.352l-.931.372V0h.931Z" transform="translate(-414.5)" fill="url(#n)"/></g><g transform="translate(224.335 55.618)" opacity="0.3"><path d="M253.246,67.99V82.322L239.1,74.132V59.8Z" transform="translate(-239.1 -59.8)" fill="#fed904"/></g><g transform="translate(267.89 217.273)" opacity="0.3"><path d="M314.1,244.016v18.427l-28.2-10.516.093-18.427Z" transform="translate(-285.9 -233.5)" fill="#0f06dd"/></g><g transform="translate(217.821 312.199)" opacity="0.1"><path d="M260.206,351.786v28.385L232.1,363.978V335.5Z" transform="translate(-232.1 -335.5)" fill="#0f06dd"/></g><path d="M368.931,786.071H368V613.993l.931-.093Z" transform="translate(-23.704 -42.607)" fill="url(#o)"/><g transform="translate(231.408 0.524)"><path d="M247.631,474.767l-.931-.465V.6h.931Z" transform="translate(-246.7 -0.6)" fill="url(#p)"/></g><g transform="translate(350.811 308.849)" opacity="0.5"><path d="M394.171,342.975v19.358L375,351.258V331.9Z" transform="translate(-375 -331.9)" fill="#fed904"/></g><g transform="translate(131.922 427.758)"><path d="M221.136,551.133l-13.541,9L152.5,529.606l11.674-9.358Z" transform="translate(-140.681 -463.223)" fill="url(#q)"/></g><g transform="translate(504.276 441.932)" opacity="0.2"><path d="M539.9,498.725v41.693l41.228-23.825V474.9Z" transform="translate(-526.9 -475.9)" fill="#0f06dd"/></g><path d="M189.912,521.572" transform="translate(-9.876 -36.179)" fill="#0f06dd"/><path d="M144,362.32c.186-3.164.745-6.794,2.7-7.445s3.63,2.234,5.677,1.582c.465-.093,2.047-.745,3.443-8.19,1.21-6.608.372-15.914,1.4-16.1s2.513,8.655,4,8.469c1.582-.093,1.117-7.538,2.047-7.538,1.3.093,2.513,13.681,4,13.774.558,0,.651-3.443,2.141-4.188,1.3-.651,2.047,2.047,2.885,1.675,2.234-1.024,2.327-7.538,1.768-14.89-.279-3.257-.093-6.049,1.3-6.235,1.21-.186,1.117,1.21,1.861,4.095.558,2.141,1.582,4.467,1.954,4.374.745-.186.838-7.352,3.35-8.841,1.024-.558,2.978,1.3,3.536-4.56" transform="translate(-8.17 -22.108)" fill="none" stroke="#02004f" stroke-miterlimit="10" stroke-width="1" opacity="0.5"/><g transform="translate(94.882 426.204)" opacity="0.1"><path d="M148.022,482.476v42.717L100,500.81V458Z" transform="translate(-100 -458)" fill="#0f06dd"/></g><g transform="translate(99.814 437.353)" opacity="0.3"><path d="M117.585,476.792v6.887a1.279,1.279,0,0,1-1.954,1.117l-9.679-5.677A1.419,1.419,0,0,1,105.3,478v-6.7a1.279,1.279,0,0,1,1.954-1.117l9.679,5.584A1.048,1.048,0,0,1,117.585,476.792Z" transform="translate(-105.3 -469.98)" fill="#02004f"/></g><path d="M107.34,503.124,105.2,502.1V486l2.141,1.024Z" transform="translate(-5.479 -33.738)" fill="#02004f" opacity="0.3"/><path d="M112.841,506.254l-2.141-.931V494.9l2.141,1.024Z" transform="translate(-5.86 -34.355)" fill="#02004f" opacity="0.3"/><path d="M130.84,515.454,128.7,514.43V504.1l2.141,1.024Z" transform="translate(-7.109 -34.993)" fill="#02004f" opacity="0.3"/><path d="M118.547,508.881l-2.047-1.024V495.2l2.047.931Z" transform="translate(-6.263 -34.376)" fill="#02004f" opacity="0.3"/><path d="M124.641,511.681l-2.141-1.117V491.3l2.141,1.117Z" transform="translate(-6.679 -34.105)" fill="#02004f" opacity="0.3"/><g transform="translate(140.319 378.747)"><path d="M239.2,484.459H236l-1.523-12.345H239.2Z" transform="translate(-229.529 -374.317)" fill="#ffb6b6"/><path d="M457.873,692.326v-2.17l.841.051,3.425.2.793.049.606,7.266.032.39H461.3l-.073-.387-.33-1.758-.852,1.758-.187.387h-6.025a1.361,1.361,0,0,1-1.353-1.355C452.224,695.572,457.234,693,457.873,692.326Z" transform="translate(-452.469 -581.896)" fill="#01044e"/><path d="M75.971,474.411l-2.784,1.579L65.771,466l4.108-2.331Z" transform="translate(-28.807 -367.753)" fill="#ffb6b6"/><path d="M273.746,679.121l-1.069-1.886.752-.371,3.081-1.512.714-.352,3.509,5.137.825,1.207-.933.53-1.042.592-1.412-1.666.157,2.378-4.921,2.795h0l-.317.179a1.355,1.355,0,0,1-1.845-.511C270.437,684.732,273.527,680.03,273.746,679.121Z" transform="translate(-230.152 -570.109)" fill="#01044e"/><path d="M332.773,422.08c4.289,2.842,5.867,30.145,4.753,29.7l10.108,18.839-14.388,6.449-9.46-32.848-1.577,12.088,2.1,19.183-9.3,2.249-6.433-.459c1.672-22.866,3.178-46.983,6.637-56.312Z" transform="translate(-304.555 -372.534)" fill="#01044e"/><path d="M377.9,279.133s4.761-.616,6.212-.036c.516.206,1.032,2.1,2,2.667a5.563,5.563,0,0,0,3.183.85c-.685,8.716-.647,15.478,3.448,28.1a1.866,1.866,0,0,1-2.7,1.694L373.218,311.1l-1.995-10.5-2.611-5.512L372,288.126l.29-4.062,4.266-2.078Z" transform="translate(-363.002 -261.999)" fill="#051dde"/><path d="M378.507,218.241H378.5a1.036,1.036,0,0,1-1.121-.943l-.5-5.76a7.726,7.726,0,0,1,.346-3.057,7.851,7.851,0,0,1,3.75-4.488,7.73,7.73,0,0,1,2.969-.887c4.253-.377,5.8.519,8.383,7.018s.5,5.768.5,5.768a1.037,1.037,0,0,1-.047.411,1.055,1.055,0,0,1-.505.6,1.041,1.041,0,0,1-.4.118c-5.033,1.244-10.112,2.555-13.374,1.215Z" transform="translate(-365.714 -203.034)" fill="#01044e"/><path d="M408.6,219.219a5.7,5.7,0,0,1-5.853,8.749,5.632,5.632,0,0,1-3.611-2.41,5.7,5.7,0,0,1,5.849-8.747,5.632,5.632,0,0,1,3.615,2.408Z" transform="translate(-386.393 -213.665)" fill="#ffb6b6"/><path d="M400.049,220.337a6.112,6.112,0,0,1,.274-2.418c.07-1.91.636-3.637,2.965-3.549a6.115,6.115,0,0,1,2.333-.7l1.152-.106.039,0a6.1,6.1,0,0,1,6.6,5.554l.01.115-2.438.222-1.034-2.251.036,2.342-1.259.115-.521-1.136.018,1.181c-1.879,1.633-4.713,1.7-8.168.748Z" transform="translate(-390.67 -211.205)" fill="#01044e"/><path d="M393.142,232.595a1.019,1.019,0,0,0,.091.554,1.043,1.043,0,0,0,.158.244,1.056,1.056,0,0,0,.184.167,1.034,1.034,0,0,0,.691.185l.046-.005.046-.007.046-.009.045-.011.852-.233.971-2.651.2,2.333,3.874-1.051-.861-9.9-6.594.606.18.175a4.555,4.555,0,0,1,1.222,2.143,7.425,7.425,0,0,1,.171,2.52,13.394,13.394,0,0,1-.489,2.518,19.742,19.742,0,0,1-.759,2.141A1.041,1.041,0,0,0,393.142,232.595Z" transform="translate(-376.006 -217.948)" fill="#01044e"/><path d="M379.249,449.379l4.844-29.128a2.257,2.257,0,0,0-1.854-2.593l-22-3.658a2.257,2.257,0,0,0-2.593,1.854L352.8,444.982a2.257,2.257,0,0,0,1.854,2.593l22,3.658a2.257,2.257,0,0,0,2.593-1.854Z" transform="translate(-350.866 -367.09)" fill="#e6e6e6"/><path d="M385.87,447.315l3.114-18.726a2.113,2.113,0,0,0-1.736-2.429l-18.906-3.144a2.114,2.114,0,0,0-2.429,1.736l-4.31,25.92a2.114,2.114,0,0,0,1.736,2.429l11.712,1.947A9.414,9.414,0,0,0,385.87,447.315Z" transform="translate(-357.711 -374.104)" fill="#fff"/><path d="M396.474,453.373a2.065,2.065,0,0,0-1.7-2.373l-13.115-2.181a2.063,2.063,0,1,0-.677,4.07L394.1,455.07A2.065,2.065,0,0,0,396.474,453.373Z" transform="translate(-369.13 -394.173)" fill="#ffd900"/><path d="M401.211,481.861a2.065,2.065,0,0,0-1.7-2.373L386.4,477.307a2.063,2.063,0,0,0-.677,4.07l13.115,2.181A2.065,2.065,0,0,0,401.211,481.861Z" transform="translate(-374.92 -416.329)" fill="#ffd900"/><path d="M405.948,510.349a2.065,2.065,0,0,0-1.7-2.373l-13.115-2.181a2.063,2.063,0,0,0-.677,4.07l13.115,2.181A2.065,2.065,0,0,0,405.948,510.349Z" transform="translate(-380.71 -438.486)" fill="#ffd900"/><path d="M346.733,398.439a2.344,2.344,0,0,1,.368-3.551l-2.309-11.455,3.011-1.418,2.642,13.625a2.341,2.341,0,0,1-3.713,2.8Z" transform="translate(-315.733 -342.238)" fill="#ffb6b6"/><path d="M352.39,295.968s5.293,1.992,5.583,4.893.957,5.487.667,6.648,1,2.479.417,3.35.811,1.157.231,2.607-.87,1.741-.58,2.031,1.238,6.252,1.238,6.252l-4.121.915-5.377-12.228Z" transform="translate(-326.172 -275.314)" fill="#051dde"/><path d="M466.263,398.439a2.344,2.344,0,0,0-.368-3.551l2.309-11.455-3.011-1.418-2.642,13.625a2.341,2.341,0,0,0,3.713,2.8Z" transform="translate(-459.273 -342.238)" fill="#ffb6b6"/><path d="M462.468,301.015a3.092,3.092,0,0,0-2.611,1.741c-.87,1.741-4.13,12.713-3.84,13.584s-1.025,3.681-.444,4.261,1.111,3.962,1.111,3.962l4.228.97,1.364-12.913Z" transform="translate(-452.024 -279.24)" fill="#051dde"/></g><g transform="translate(-174.726 94.757)"><path d="M780.845,563.389h-2.836l-1.349-10.941h4.186Z" transform="translate(-112.099 -263.94)" fill="#9e616a"/><path d="M941.83,736.686h-8.722v-.11a3.4,3.4,0,0,1,3.395-3.395h0l1.593-1.209,2.973,1.209h.761Z" transform="translate(-272.985 -434.278)" fill="#01044e"/><path d="M745,531.944l-2.716.818-4.45-10.085,4.008-1.208Z" transform="translate(-85.012 -242.328)" fill="#9e616a"/><path d="M916.119,706.6l-8.351,2.517-.032-.106a3.4,3.4,0,0,1,2.271-4.23h0l1.177-1.617,3.2.3.729-.22Z" transform="translate(-255.183 -414.184)" fill="#01044e"/><path d="M894.33,508.495a45.733,45.733,0,0,0-4.108,7.784c-2.631,7.723-3.889,5.87-6.919,24.648a206.919,206.919,0,0,0,8.181,23.014s6.118-1.721,6.118-2.868-3.9-15.135-4.477-16.76-1.529-2.2-.669-3.537,7.927-13.038,7.927-13.038-.191,19.941,0,20.324,1.111,23.346,1.111,23.346,6.292,3.22,6.673-.212c.1-.86.216-23.617.216-24s5.824-36.011,3.052-37.445S894.33,508.495,894.33,508.495Z" transform="translate(-238.239 -278.363)" fill="#01044e"/><path d="M877.678,496.495a2.658,2.658,0,0,1,3.395-2.256l5.5-7.683,1.76,4.582-5.489,6.593a2.673,2.673,0,0,1-5.162-1.236Z" transform="translate(-234.302 -263.062)" fill="#9e616a"/><path d="M914.586,385.511l-5.2,2.02-2.136,2.951-5.179,26.562.206.9-.516.691-.2,1.039.5.864-.882,1.083s.233.863,1.1,8.214c.534,4.536,9.167,1.742,9.167,1.742l3.919-40.284Z" transform="translate(-250.711 -192.568)" fill="#051dde"/><path d="M759.547,238.463l-4.484-4.011-6.631.4-3.818,4.642-7.4,38.347,15.567,1.3Z" transform="translate(-84.577 -42.088)" fill="#d6d6d6"/><path d="M948.086,385.729l4.079,3.131,1.564,2.283a6.673,6.673,0,0,1,3.038,7.847l-4.954,17.463-.116.357a46.5,46.5,0,0,1,.166,6.034c-.073.768.818,1.625.751,2.383-.052.593-1.065,1.1-1.11,1.643-.04.492.493.96.461,1.384a7.066,7.066,0,0,1-.666,2.38c-4.22,1.746-12.37.479-12.37.479l7.385-39.795Z" transform="translate(-277.047 -192.72)" fill="#051dde"/><circle cx="7.341" cy="7.341" r="7.341" transform="translate(659.139 176.139)" fill="#9e616a"/><path d="M946.372,332.936c-.426,2.413-2.149,4.8-4.556,5.258l-.045-.061a21.975,21.975,0,0,0,.175-3.154,1.224,1.224,0,0,0-2.37-.413,8.986,8.986,0,0,0-.6-2.744c-.251-.884-.422-1.723-1.3-2.013a4.278,4.278,0,0,0-2.27.1c-1.033.234-1.559.179-1.652-.082l-1.147.419a.707.707,0,0,1-.815-.25l0,0q-1,.259-2,.515a12.232,12.232,0,0,1-.309-1.3,3.5,3.5,0,0,0,1.17-1.818,4.429,4.429,0,0,1-1.286.493,3.3,3.3,0,0,1,1.207-2.655,7.383,7.383,0,0,1,5.189-1.946c2.448.123,3.18,2.757,5.405,1.73C943.979,323.709,946.8,330.523,946.372,332.936Z" transform="translate(-270.374 -149.143)" fill="#01044e"/><path d="M805.968,369.288a1.5,1.5,0,0,0-2.1.226L787.433,389.9a1.5,1.5,0,0,0,.226,2.1l28.836,23.246a1.5,1.5,0,0,0,2.1-.226l16.434-20.386a1.5,1.5,0,0,0-.225-2.1Z" transform="translate(-171.123 -181.019)" fill="#d6d6d6"/><path d="M810.551,409.029,792.9,394.8a1.61,1.61,0,0,1-.243-2.261l14.906-18.49a1.61,1.61,0,0,1,2.261-.243l27.206,21.932a1.61,1.61,0,0,1,.243,2.261l-7.2,8.934A13.9,13.9,0,0,1,810.551,409.029Z" transform="translate(-174.751 -184.153)" fill="#fff"/><path d="M862.006,410.263l-4.194-3.381a.515.515,0,0,1,.646-.8l4.194,3.381a.514.514,0,0,1-.646.8Z" transform="translate(-220.32 -206.839)" fill="#051dde"/><path d="M867.04,423.261l-13.6-10.961a.514.514,0,0,1,.646-.8l13.6,10.961a.514.514,0,1,1-.646.8Z" transform="translate(-217.273 -210.619)" fill="#f7f7f7"/><path d="M862.026,429.481l-13.6-10.961a.515.515,0,1,1,.646-.8l13.6,10.961a.514.514,0,0,1-.646.8Z" transform="translate(-213.775 -214.958)" fill="#f7f7f7"/><path d="M857.012,435.7l-13.6-10.961a.514.514,0,1,1,.646-.8l13.6,10.961a.514.514,0,0,1-.646.8Z" transform="translate(-210.277 -219.298)" fill="#f7f7f7"/><path d="M852,441.92l-13.6-10.961a.514.514,0,1,1,.646-.8l13.6,10.961a.514.514,0,0,1-.646.8Z" transform="translate(-206.779 -223.637)" fill="#f7f7f7"/><path d="M872.556,460.395a2.658,2.658,0,0,1,4.076,0l8.832-3.352-1.073,4.79-8.222,2.448a2.673,2.673,0,0,1-3.613-3.889Z" transform="translate(-230.297 -242.474)" fill="#9e616a"/><path d="M893.6,429.016l-1.508-4.332,12.932-5.586,16.069-11.938,2.028,2.5a3.216,3.216,0,0,1-.613,4.629l-12.35,9.764-.015.005-3.833,1.148-.858.05-.916.481-.814-.265-1.126.846-1.293.387Z" transform="translate(-244.369 -207.672)" fill="#051dde"/></g><g transform="translate(456.254 456.75)"><path d="M758.706,501.524c8.153.345,12.763.094,18.706-5.065,4.046-.108,7.263-3.034,7.17-6.523s-3.46-6.24-7.507-6.133l-14.692.7c-4.046.108-11.572-.141-11.479,3.348.046,1.713.046,3.935.205,6.262A7.953,7.953,0,0,0,758.706,501.524Z" transform="translate(-746.207 -410.844)" fill="#01044e"/><path d="M488.231,464.113l4.21.688,4.656-15.91-6.213-1.015Z" transform="translate(-449.544 -340.77)" fill="#ffb6b6"/><path d="M721.613,506.872c-7.849,1.93-13.644-.243-18.417.038-2.713-4.579-11.375-10.394-6.649-12.842,2.632-1.363,29.386-4.506,32.9-.879,9.031,9.327-2.182,38.78-2.182,38.78l-6.237-.081-1.993-2.844,1.6-3.1-1.518-2.534,1.737-2.611Z" transform="translate(-681.254 -416.703)" fill="#01044e"/><path d="M703.31,678.871l2.758.738,1.189-2.472.564,2.941,7.315,1.959a1.7,1.7,0,0,0,1.737-2.747l-4.761-5.6.7-2.632-6.242-1.278Z" transform="translate(-667.519 -552.349)" fill="#01044e"/><path d="M602.873,456.389l3.072,2.959,12.875-10.441-4.534-4.367Z" transform="translate(-598.684 -338.231)" fill="#ffb6b6"/><path d="M750.095,483.658c-7.195,2.771-13.487-.311-19.7-3.883.371-5.309.578-12.965,5.857-12.292,2.94.375,27.241,4.39,28.068,9.371,2.128,12.807-28.372,37.219-28.372,37.219l-5.085-3.612-.022-3.473,3.083-1.638.192-2.948,2.914-1.16Z" transform="translate(-721.14 -398.397)" fill="#01044e"/><path d="M860.112,658.98l1.849,2.175,2.384-1.357-1.209,2.74,4.9,5.77a1.7,1.7,0,0,0,2.991-1.273l-.734-7.312,2.076-1.765-4.409-4.6Z" transform="translate(-860.112 -539.853)" fill="#01044e"/><path d="M782.854,329.512c.507,0,.795-.1.906-.312.164-.313,1.208-.721.879-1.195-.229-.33-.782-.772-.569-1.026.82-.98,2.869-29.08,3.351-32.914a7.637,7.637,0,0,0-.469-3.5c-1.352-3.831-3.2-5.008-6.875-7.354l-.932-.6c-.418-.269-.395.359-.37-.584a4.641,4.641,0,0,0-.458-2.81l-.033-.044-.054-.013c-1.242-.287-5.419-.82-7.893,0l-.034.012-.026.025c-.588.588-.641,1.726-.693,2.827-.042.9-.083.239-.415.61a10.339,10.339,0,0,1-4.783,2.7A4.68,4.68,0,0,0,761,289.992c.173,5.244.037,13.537.932,19.381,1.49,9.726-12.112,23.772-4.321,24.061a.2.2,0,0,0-.006.207C758.161,334.679,780.944,329.512,782.854,329.512ZM757.867,333.6Z" transform="translate(-750.106 -254.814)" fill="#051dde"/><ellipse cx="9.286" cy="9.286" rx="9.286" ry="9.286" transform="translate(15.578 4.999)" fill="#01044e"/><ellipse cx="6.674" cy="6.674" rx="6.674" ry="6.674" transform="translate(30.787 24.528) rotate(-178.377)" fill="#ffb6b6"/><path d="M779.178,210.032l2.705.077a6.439,6.439,0,0,1,6.249,6.611l0,.06-.049.031a8.538,8.538,0,0,1-4.968,1.414l-.152,0-1.495-.068a4.13,4.13,0,0,1-.244-2.036,13.73,13.73,0,0,0-.527,2l-6.707-.305a1.5,1.5,0,0,1-1.423-1.532,6.439,6.439,0,0,1,6.614-6.247Z" transform="translate(-754.937 -202.542)" fill="#01044e"/><path d="M694.714,184.537a6.429,6.429,0,0,0,2.472,1.475,10.571,10.571,0,0,1,5.92,7.894,39.922,39.922,0,0,0,.486,4.158,3.827,3.827,0,0,0,2.64,2.967,5.16,5.16,0,0,0,2.756-.478l1.461-.542q-.7-1.912-1.4-3.824a19.17,19.17,0,0,0,2.7,3.344l5.242-1.941c-4.254-.1-3.411-4.213-4.246-8.383-.459-2.292-4.869-3.959-5.681-6.15a6.629,6.629,0,0,0-12-.944C694.178,182.434,694.114,183.793,694.714,184.537Z" transform="translate(-665.082 -178.722)" fill="#01044e"/><ellipse cx="3.458" cy="3.458" rx="3.458" ry="3.458" transform="translate(25.748 1.661)" fill="#01044e"/><path d="M767.3,355.509h15.964a2.064,2.064,0,0,0,2.062-2.062v-17.16a2.064,2.064,0,0,0-2.062-2.062H767.3a2.064,2.064,0,0,0-2.062,2.062v17.16A2.064,2.064,0,0,0,767.3,355.509Z" transform="translate(-750.379 -297.038)" fill="#01044e"/><ellipse cx="1.196" cy="1.196" rx="1.196" ry="1.196" transform="translate(31.242 38.503)" fill="#e6e6e6"/><ellipse cx="0.717" cy="0.717" rx="0.717" ry="0.717" transform="translate(31.721 38.981)" fill="#3f3d56"/><path d="M748.422,410.894l10.965-2.781,1.7,5.642s-11.8.874-12.238.878a2.822,2.822,0,1,1-.432-3.739Z" transform="translate(-720.998 -353.257)" fill="#ffb6b6"/><path d="M698.864,312.754c7.818,4.178,11.245,13.492,16.041,21.677a6.467,6.467,0,0,1-6.314,7.178l-9.384.216,1.176-5.79,3.139-1.783-3.71-8.975Z" transform="translate(-664.123 -280.701)" fill="#051dde"/><path d="M799.131,338.609l-7.484,9.082,3.091,4.9s7.525-11.764,7.695-12.171a2.822,2.822,0,1,0-3.3-1.808Z" transform="translate(-775.979 -297.511)" fill="#ffb6b6"/><path d="M821.992,313.541c-2.259-1.248-8.848,18-1.914,28.952a6.467,6.467,0,0,0,9.027-3.147l3.589-8.784-5.751-1.833-2.746,3.151.382-6.27-3.269-8.911Z" transform="translate(-810.12 -281.257)" fill="#051dde"/></g><g transform="translate(93.319 294.904)"><path d="M568.048,488.336h3.188l1.517-12.3h-4.707Z" transform="translate(-559.154 -374.797)" fill="#9e616a"/><path d="M776.506,699.993h9.806v-.124a3.817,3.817,0,0,0-3.817-3.817h0l-1.791-1.359-3.342,1.359h-.856Z" transform="translate(-767.725 -583.127)" fill="#01044e"/><path d="M531.931,488.336h3.189l1.517-12.3H531.93Z" transform="translate(-511.515 -374.797)" fill="#9e616a"/><path d="M740.389,699.993H750.2v-.124a3.817,3.817,0,0,0-3.816-3.817h0l-1.791-1.359-3.342,1.359h-.856Z" transform="translate(-720.086 -583.127)" fill="#01044e"/><path d="M763.551,527.149c-1.894,6.033-2.621,10.766-4.064,16.74-.57,1.049-3.023,9.763-3.023,9.763s-3.677.4-4.978-.626.04-6.122.04-6.122c-.857-3.851,1.256-9.917,1.381-13.651-.26-1.567,1.119-2.912,1.245-4.406-.912-.694-5.346-11.579-6.25-14.621.465,9.268-3.612,30.43-1.464,37.461,1.248,4.085-1.653,3.177-5.949,3.374-1.916-.569-1.136-3.848-1.136-3.848a10.452,10.452,0,0,1-1.3-3.005c-.931-3.93-2.05-12.478-1.745-14.4-.14-2.039-.209-22.409-1.766-29.545-1.038-5.684,11.682-6.935,15.34-8.29,6.1-2.941,5.074,1.24,8.288,5.092C761.267,507.706,763.093,519.562,763.551,527.149Z" transform="translate(-731.556 -447.129)" fill="#01044e"/><path d="M774.931,399.6l-3.708-4.175-5.859.651-3.751,5.25h0c-4.146.954-4.911,4.344-4.183,8.536,1.456,8.383,5.049,14.242,3.416,18.378-2.48,6.278-1.277,11.11,4.658,10.229s19.614-6.693,15.758-10.548-.408-5.876-.408-5.876l-2.707-14.74C778.84,403.544,778.734,399.992,774.931,399.6Z" transform="translate(-757.186 -379.328)" fill="#051dde"/><path d="M728.841,446.737l4.673-1.524c2.095,2.427,3.932,9.542,3.932,9.542l6.64,10.33a2.17,2.17,0,1,1-3.052,2.188l-9.971-11.631Z" transform="translate(-711.571 -413.234)" fill="#9e616a"/><path d="M744.413,407.266h0a5.186,5.186,0,0,0-2.856,7.454l1.521,2.705s2.412,10.249,4.952,12.331l5.927,6.848,4.7-2.047-4.59-8.186s-1.95-4.173-1.411-6.451c.33-1.4-.484-5.872-1.671-9.422a5.173,5.173,0,0,0-6.572-3.233Z" transform="translate(-728.707 -387.204)" fill="#051dde"/><ellipse cx="6.057" cy="6.057" rx="6.057" ry="6.057" transform="translate(3.628 3.091)" fill="#a0616a"/><path d="M800.892,348.669a3.409,3.409,0,0,0-.593-1.394,1.667,1.667,0,0,0-2.483-.075,1.827,1.827,0,0,0,.08-.857,4.646,4.646,0,0,1-1.4.417l1.075-1.122c-2.208-.981-4.033-.928-5.35.492-.377.406-1.149.123-1.555.542s-.428,1.315.085,1.549a2.546,2.546,0,0,0-2.836,1.1,6.1,6.1,0,0,0-.957,3.328,6.4,6.4,0,0,0,1.165,4.3,26.951,26.951,0,0,0,2.126,1.864l.02.02a6.026,6.026,0,0,0,5.833,1.625c.116-.032.23-.067.346-.1a1.4,1.4,0,0,0,1.659-.676,4.245,4.245,0,0,0,.481-2.163,17.717,17.717,0,0,0-.182-2.946c-.16-1.1-.305-2.505.565-3.057.677-.43,1.519-.006,2.2.415a11.323,11.323,0,0,0-.277-3.257Z" transform="translate(-785.934 -344.97)" fill="#01044e"/></g><g transform="translate(-705.178 190.675)"><circle cx="12.5" cy="12.5" r="12.5" transform="translate(1007.534 232.807)" fill="#0f06dd"/><path d="M10.819,8.8,5.692,11.934.563,8.8,5.692,0ZM5.692,12.939.563,9.808l5.13,7.472,5.13-7.472Z" transform="translate(1014.433 236.798)" fill="#fff"/></g><g transform="translate(-742.99 -142.25)"><circle cx="12.5" cy="12.5" r="12.5" transform="translate(1007.534 232.807)" fill="#0f06dd"/><path d="M10.819,8.8,5.692,11.934.563,8.8,5.692,0ZM5.692,12.939.563,9.808l5.13,7.472,5.13-7.472Z" transform="translate(1014.433 236.798)" fill="#fff"/></g><path d="M25.763,13.163a12.6,12.6,0,1,1-12.6-12.6A12.6,12.6,0,0,1,25.763,13.163Zm-7.2-1.8c.251-1.677-1.026-2.578-2.772-3.179l.566-2.271-1.383-.345-.551,2.211c-.363-.091-.737-.176-1.108-.261L13.875,5.3l-1.382-.345-.567,2.27c-.3-.069-.6-.136-.883-.207l0-.007L9.138,6.533,8.77,8.009s1.026.235,1,.25a.736.736,0,0,1,.644.8L9.773,11.65a1.147,1.147,0,0,1,.144.046l-.146-.036-.9,3.625a.5.5,0,0,1-.634.328c.014.02-1-.251-1-.251l-.686,1.583,1.8.448c.335.084.663.172.986.254l-.572,2.3,1.381.345.567-2.273q.549.149,1.1.286l-.565,2.262,1.383.345.572-2.293c2.358.446,4.131.266,4.877-1.866A2.426,2.426,0,0,0,16.8,13.4a2.2,2.2,0,0,0,1.765-2.03ZM15.407,15.8c-.427,1.717-3.318.789-4.255.556l.759-3.043c.937.234,3.943.7,3.5,2.487Zm.428-4.454c-.39,1.562-2.8.768-3.577.574l.688-2.76C13.727,9.351,16.241,9.714,15.835,11.343Z" transform="translate(346.594 226.025)" fill="#ffd900"/><path d="M25.763,13.163a12.6,12.6,0,1,1-12.6-12.6A12.6,12.6,0,0,1,25.763,13.163Zm-7.2-1.8c.251-1.677-1.026-2.578-2.772-3.179l.566-2.271-1.383-.345-.551,2.211c-.363-.091-.737-.176-1.108-.261L13.875,5.3l-1.382-.345-.567,2.27c-.3-.069-.6-.136-.883-.207l0-.007L9.138,6.533,8.77,8.009s1.026.235,1,.25a.736.736,0,0,1,.644.8L9.773,11.65a1.147,1.147,0,0,1,.144.046l-.146-.036-.9,3.625a.5.5,0,0,1-.634.328c.014.02-1-.251-1-.251l-.686,1.583,1.8.448c.335.084.663.172.986.254l-.572,2.3,1.381.345.567-2.273q.549.149,1.1.286l-.565,2.262,1.383.345.572-2.293c2.358.446,4.131.266,4.877-1.866A2.426,2.426,0,0,0,16.8,13.4a2.2,2.2,0,0,0,1.765-2.03ZM15.407,15.8c-.427,1.717-3.318.789-4.255.556l.759-3.043c.937.234,3.943.7,3.5,2.487Zm.428-4.454c-.39,1.562-2.8.768-3.577.574l.688-2.76C13.727,9.351,16.241,9.714,15.835,11.343Z" transform="translate(206.776 395.452) rotate(-30)" fill="#ffd900"/></g></svg>