<svg xmlns="http://www.w3.org/2000/svg" width="73" height="48.221" viewBox="0 0 73 48.221"><rect width="12.964" height="43.517" rx="6.482" transform="translate(0 2.343)" fill="#fff"/><path d="M568.9,654.407a6.482,6.482,0,0,1-8.855-2.372l-15.532-26.9-2.111-3.651q-.4-.761-.86-1.487a23.908,23.908,0,0,0-2.127-2.885c-1.846-2.146-4.215-4.434-6.564-5.337h.609l14.56.01h.008a6.479,6.479,0,0,1,5.619,3.242l17.625,30.528A6.481,6.481,0,0,1,568.9,654.407Z" transform="translate(-521.186 -609.429)" fill="#fff"/><rect width="12.964" height="48.196" rx="6.482" transform="translate(37.675 6.482) rotate(-30)" fill="#fff"/><circle cx="6.466" cy="6.466" r="6.466" transform="translate(12.964 32.927)" fill="#fff"/></svg>