<svg xmlns="http://www.w3.org/2000/svg" width="57.692" height="35.546" viewBox="0 0 57.692 35.546"><g transform="translate(-56.6 -611.8)"><path d="M562.149,646.626a5.3,5.3,0,0,1-7.233-1.937l-12.688-21.976-1.725-2.981q-.33-.621-.7-1.215a19.506,19.506,0,0,0-1.739-2.357,15.4,15.4,0,0,0-5.362-4.36h.5l11.893.008h.006a5.3,5.3,0,0,1,4.59,2.647l14.4,24.935A5.3,5.3,0,0,1,562.149,646.626Z" transform="translate(-466.574)" fill="#051dde"/><path d="M1713.629,647.6h0a5.294,5.294,0,0,1-7.233-1.939l-14.391-24.923a5.294,5.294,0,0,1,1.939-7.233h0a5.294,5.294,0,0,1,7.233,1.939l14.391,24.923A5.294,5.294,0,0,1,1713.629,647.6Z" transform="translate(-1601.986 -0.975)" fill="#051dde"/><g transform="translate(56.6 611.8)"><path d="M61.894,647.344h0A5.3,5.3,0,0,1,56.6,642.05V617.094a5.3,5.3,0,0,1,5.294-5.294h0a5.3,5.3,0,0,1,5.294,5.294v24.957A5.292,5.292,0,0,1,61.894,647.344Z" transform="translate(-56.6 -611.8)" fill="#01044e"/><circle cx="5.282" cy="5.282" r="5.282" transform="translate(10.589 24.981)" fill="#01044e"/></g></g></svg>