<svg xmlns="http://www.w3.org/2000/svg" xmlns:xlink="http://www.w3.org/1999/xlink" width="485" height="862" viewBox="0 0 485 862"><defs><clipPath id="a"><rect width="485" height="862" transform="translate(1972 3217)" fill="#fff"/></clipPath></defs><g transform="translate(-1972 -3217)" clip-path="url(#a)"><g transform="translate(1849 3270)"><path d="M909.52,498.276,247.5,116.786V64.05h.615v52.368L909.828,497.785ZM544.5,559,41.8,264.836H-112V264H42.051l.084.084L545,558.248Z" fill="#00b6ff"/><path d="M909.52,498.276,247.5,116.786V64.05h.615v52.368L909.828,497.785ZM544.5,559,41.8,264.836H-112V264H42.051l.084.084L545,558.248Z" transform="translate(-21.773 558.603)" fill="#00b6ff"/><path d="M857.768,64.05V28.26L811.861,1.922V37.713l45.907,26.338Z" fill="#2cd4d9" opacity="0.2"/><path d="M857.768,64.05V28.26L811.861,1.922V37.713l45.907,26.338Z" transform="translate(-483.355 485.365)" fill="#00b6ff" opacity="0.2"/><path d="M881.028,102.114,834.506,75.408V38.941l46.522,26.706ZM835.122,75.04l45.291,26.03V66.015l-45.291-26.03Z" fill="#2cd4d9" opacity="0.7"/><path d="M881.028,102.114,834.506,75.408V38.941l46.522,26.706ZM835.122,75.04l45.291,26.03V66.015l-45.291-26.03Z" transform="translate(-261.513 678.147)" fill="#00b6ff" opacity="0.7"/><path d="M656.726,239.755a.551.551,0,0,1-.308-.062L295.995,31.82a.632.632,0,1,1,.615-1.105L656.726,238.4l169.719-104.8a.622.622,0,1,1,.677,1.043L657.095,239.632a.881.881,0,0,1-.369.123Z" fill="#115df6"/><path d="M656.726,239.755a.551.551,0,0,1-.308-.062L295.995,31.82a.632.632,0,1,1,.615-1.105L656.726,238.4l169.719-104.8a.622.622,0,1,1,.677,1.043L657.095,239.632a.881.881,0,0,1-.369.123Z" transform="translate(-282.519 424.795)" fill="#115df6"/><path d="M785.685,314a.282.282,0,0,1-.158-.032L656.157,238.6a.353.353,0,0,1-.126-.446.347.347,0,0,1,.442-.127l129.37,75.332a.353.353,0,0,1,.126.446A.3.3,0,0,1,785.685,314Z" fill="#fff"/><path d="M558.3,262.919,455.043,203,322,279.617l103.259,59.919Z" transform="translate(-138.28 354.813)" fill="#d6d6d6" opacity="0.1"/><path d="M701.894,518.351a.466.466,0,0,1-.308-.061L451.13,364.257,368.363,415.52a.564.564,0,0,1-.616,0L126.768,276.467a.65.65,0,0,1,0-1.105l104.674-59.919L103.63,140.913a.632.632,0,1,1,.615-1.1L232.981,214.89a.65.65,0,0,1,0,1.106L128.306,275.914,367.993,414.23l82.768-51.262a.665.665,0,0,1,.677,0L702.2,517.246a.6.6,0,0,1,.184.86.764.764,0,0,1-.492.245Z" fill="#115df6"/><path d="M334.763,202.8,201.72,279.413,115.568,229.5l133.043-76.617Z" fill="#f7f7f7"/><path d="M408.546,20.83,275.565,97.448,189.412,47.536,322.456-29.081l86.09,49.911ZM219.381,133.3,86.338,209.918.186,160.006,133.229,83.389,219.381,133.3Z" fill="#115df6"/><path d="M696.54,408.828,563.5,485.445,477.345,435.6l133.043-76.679,86.152,49.912Z" fill="#115df6"/><path d="M817.83,478.877,684.787,555.555l-86.152-49.912,133.043-76.617,86.152,49.851Z" fill="#fff"/><path d="M889.951,294.516,756.908,371.2l-86.09-49.912L803.8,244.666l86.152,49.85Z" fill="#fff"/><path d="M362.134,339.912,229.152,416.529,143,366.679,276.043,290Z" fill="#f7f7f7"/><path d="M578.2,340.5,445.223,417.116l-86.153-49.85,133.044-76.618L578.2,340.5Z" fill="#f7f7f7"/><path d="M529.59,91.186,396.547,167.865l-86.091-49.912L443.5,41.336l86.091,49.85Z" fill="#f7f7f7"/><path d="M529.59,91.186,396.547,167.865l-86.091-49.912L443.5,41.336l86.091,49.85Z" transform="translate(-139.354 496.685)" fill="#f7f7f7"/><path d="M529.59,91.186,396.547,167.865l-86.091-49.912L443.5,41.336l86.091,49.85Z" transform="translate(-297.286 413.751)" fill="#115df6"/><path d="M529.59,91.186,396.547,167.865l-86.091-49.912L443.5,41.336l86.091,49.85Z" transform="translate(-325.717 612.396)" fill="#ffd900"/><path d="M879.2,156.85,746.152,233.468,660,183.617,793.043,107Z" fill="#c3d5ec"/><path d="M626.88,58.955l-.431-.246L549.774,14.63V-50.446l.431.246L626.88-6.182ZM550.389,14.323l75.876,43.588V-5.752L550.389-49.34V14.323Z" fill="#2cd4d9" opacity="0.7"/><path d="M659.987,122.5l-.061-56.174L605.219,34.889V91.063Z" transform="translate(-98.338 -63.541)" fill="#00b6ff" opacity="0.3"/><path d="M659.987,122.5l-.061-56.174L605.219,34.889V91.063Z" transform="translate(-315.229 394.137)" fill="#00b6ff" opacity="0.3"/><path d="M615.988,407.478v-98.6l.185-.061,95.874-55.008v98.6Zm.677-98.289v97.184l94.767-54.394V254.8l-94.767,54.393Z" fill="#2cd4d9" opacity="0.7"/><path d="M164.982-53.392V34.03L71.015,89.283V1.922Z" fill="#00b6ff" opacity="0.1"/><path d="M164.982-53.392V34.03L71.015,89.283V1.922Z" transform="translate(-6.649 378.1)" fill="#00b6ff" opacity="0.1"/><path d="M164.982-53.392V34.03L71.015,89.283V1.922Z" transform="translate(273.743 707.931)" fill="#00b6ff" opacity="0.1"/><path d="M87.753,63.866V94.992L54.277,114.7V83.573L87.753,63.866Z" fill="#00b6ff" opacity="0.15"/><path d="M87.753,63.866V94.992L54.277,114.7V83.573L87.753,63.866Z" transform="translate(-6.649 378.1)" fill="#00b6ff" opacity="0.15"/><path d="M87.753,63.866V94.992L54.277,114.7V83.573L87.753,63.866Z" transform="translate(273.743 707.931)" fill="#00b6ff" opacity="0.15"/><path d="M558.3,262.919,455.043,203,322,279.617l103.259,59.919Z" fill="#d6d6d6" opacity="0.1"/><path d="M493.146,219.088v-2.339a2.555,2.555,0,0,0-1.451-2.334l-.672-.307a2.837,2.837,0,0,0-3.186.568,58.892,58.892,0,0,0-4.891,5.61c-.789,1.017-1.332,1.817-1.8,2.368-.677.789-1.489,2.124-.613,2.646a3.517,3.517,0,0,0,3.149.25l8.894-5.428a1.2,1.2,0,0,0,.575-1.034Z" fill="#0f0446"/><path d="M490.72,211.745l-5.574-.9,1.937,4.246a6.849,6.849,0,0,0,2.179,2.251c1.152.674,2.4.669,2.784,0a.875.875,0,0,0,.1-.451,4.865,4.865,0,0,0-.521-1.768Z" fill="#9e684d"/><path d="M486.146,216.849a5.98,5.98,0,0,1,1.627.22c.764.211,1.273.515,1.373.779" fill="none" stroke="rgba(83,51,237,0.4)" stroke-linecap="round" stroke-miterlimit="10" stroke-width="1.582"/><path d="M485.764,209.888s.864-1.477,2.068-1.514.2.54-.721,1.44S485.531,210.83,485.764,209.888Z" fill="#b7835f"/><path d="M483.458,211.8s.435-1.652,1.585-2.006.334.466-.313,1.577S483.484,212.773,483.458,211.8Z" fill="#b7835f"/><path d="M484.465,211.143s.435-1.652,1.586-2.007.333.466-.313,1.578S484.487,212.117,484.465,211.143Z" fill="#b7835f"/><path d="M533.134,226.51,400.09,303.128,314,253.277,446.982,176.66l86.152,49.85Z" fill="#ffd900"/><path d="M533.134,226.51,400.09,303.128,314,253.277,446.982,176.66l86.152,49.85Z" transform="translate(91.69 350)" fill="#ffd900"/><path d="M615.988,407.478v-98.6l.185-.061,95.874-55.008v98.6Zm.677-98.289v97.184l94.767-54.394V254.8l-94.767,54.393Z" transform="translate(-480 304)" fill="#00b6ff" opacity="0.7"/></g><g transform="translate(-4780 -1097.344)"><g transform="translate(7175.883 4598.041)"><path d="M576.729,617.918h-3.092l-1.471-11.926h4.563Z" transform="translate(-543.597 -484.446)" fill="#9f616a"/><path d="M781.023,769.412h-9.969v-.126a3.881,3.881,0,0,1,3.88-3.88h6.089Z" transform="translate(-747.103 -632.943)" fill="#01044e"/><path d="M488.264,615.22l-2.987-.8,1.659-11.9,4.408,1.179Z" transform="translate(-478.621 -481.85)" fill="#9f616a"/><path d="M685.714,764.758l-9.631-2.575.033-.122a3.881,3.881,0,0,1,4.751-2.746h0l5.882,1.573Z" transform="translate(-676.083 -628.29)" fill="#01044e"/><path d="M507.933,388.269l2.59,3.009-3.349,61.143h-7.154l-3.607-47.047-11.184,48.309-7.438-1.824,6.763-61.359Z" transform="translate(-473.022 -321.632)" fill="#01044e"/><path d="M719.96,337.278l7.123-3.573,10.955.193,9.427,4.824L742.1,365.508l2.317,13.966h0a57.13,57.13,0,0,1-27.322.225l-.072-.017s5.325-18.894,3.058-24.659Z" transform="translate(-706.699 -310.115)" fill="#051dde"/><path d="M762.515,267.421a8.071,8.071,0,1,0,0,.06C762.515,267.461,762.515,267.441,762.515,267.421Z" transform="translate(-728.646 -254.535)" fill="#9f616a"/><path d="M749.691,248.443a2.29,2.29,0,0,1,1.543-.622,3.629,3.629,0,0,1,2.7.979,3.279,3.279,0,0,1,.465,2.055l0,1.976a3.759,3.759,0,0,0,.274,1.715,1.289,1.289,0,0,0,1.432.739c.661-.211.951-1.089,1.627-1.247a1.185,1.185,0,0,1,1.25.723,3.137,3.137,0,0,1,.181,1.535c-.064,1.035-1.548,1.445-1.758,2.46-.122.587-.547,1.759,0,1.513,2.522-.252,3.629-1.725,4.783-3.112l2.6-3.127a3.055,3.055,0,0,0,.671-1.085,3.014,3.014,0,0,0,.069-.865q-.021-1.166-.063-2.331c-.025-.679-.2-1.535-.86-1.675-.346-.073-.8.054-.986-.248a.686.686,0,0,1-.031-.482,4.634,4.634,0,0,0,.139-2.334c-.385-1.127-1.711-1.589-2.883-1.8s-2.487-.4-3.222-1.332a10.221,10.221,0,0,0-.64-.9,2.511,2.511,0,0,0-1.2-.6,6.627,6.627,0,0,0-4.358.387,3.84,3.84,0,0,1-1.758.568c-.646-.041-1.2-.5-1.835-.606a2.611,2.611,0,0,0-2.522,1.507,3.166,3.166,0,0,0,.2,3.625c.443.47,1.1.793,1.289,1.413.075.252.057.524.124.778a1.405,1.405,0,0,0,1.132.979A2,2,0,0,0,749.691,248.443Z" transform="translate(-727.508 -240.169)" fill="#01044e"/><path d="M724.155,413.516a2.891,2.891,0,0,0,4.2,1.419l14.464,7.646.468-3.524-14.055-8.288a2.906,2.906,0,0,0-5.077,2.746Z" transform="translate(-711.878 -366.824)" fill="#9f616a"/><path d="M741.312,414.257a2.891,2.891,0,0,1-4.408.466l-15.787,4.3.137-4.474,15.7-4.079a2.906,2.906,0,0,1,4.353,3.79Z" transform="translate(-709.76 -366.955)" fill="#9f616a"/><path d="M785.618,353.788l3.078-.193s3.6,4.755,1.6,9.915c0,0,.346,18.536-7.636,17.775s-10.5-.761-10.5-.761l2.4-6.683,5.36-1.655s-1.652-7.287,1.475-10.319Z" transform="translate(-747.931 -324.99)" fill="#051dde"/><path d="M705.607,347.1l-.435-2.23s-6.416-.151-7.684,9.571c0,0-5.769,14.55-.114,16.423s11.876,0,11.876,0l-.469-6.416-6.222-1.27s3.214-4.159,1.464-7.766Z" transform="translate(-690.146 -318.466)" fill="#051dde"/></g></g><g transform="translate(2087.883 3776.696)"><g transform="translate(0)"><path d="M572.167,617.918h3.092l1.471-11.926h-4.563Z" transform="translate(-562.325 -484.446)" fill="#9f616a"/><path d="M771.054,769.412h9.969v-.126a3.881,3.881,0,0,0-3.88-3.88h-6.089Z" transform="translate(-762.001 -632.943)" fill="#01044e"/><path d="M488.358,615.22l2.987-.8-1.659-11.9-4.408,1.179Z" transform="translate(-455.027 -481.85)" fill="#9f616a"/><path d="M677.118,764.758l9.631-2.575-.033-.122a3.881,3.881,0,0,0-4.751-2.746h0l-5.882,1.573Z" transform="translate(-643.775 -628.29)" fill="#01044e"/><path d="M480.38,388.269l-2.59,3.009,3.349,61.143h7.154l3.607-47.047,11.184,48.309,7.438-1.824L503.76,390.5Z" transform="translate(-472.317 -321.632)" fill="#01044e"/><path d="M744.529,337.278l-7.123-3.573-10.955.193-9.427,4.824,5.363,26.787-2.317,13.966h0a57.13,57.13,0,0,0,27.322.225l.072-.017s-5.325-18.894-3.058-24.659Z" transform="translate(-714.816 -310.115)" fill="#051dde"/><path d="M746.373,267.421a8.071,8.071,0,1,1,0,.06C746.373,267.461,746.373,267.441,746.373,267.421Z" transform="translate(-737.268 -254.535)" fill="#9f616a"/><path d="M760.7,248.443a2.29,2.29,0,0,0-1.543-.622,3.629,3.629,0,0,0-2.7.979,3.279,3.279,0,0,0-.465,2.055l0,1.976a3.759,3.759,0,0,1-.274,1.715,1.289,1.289,0,0,1-1.432.739c-.661-.211-.951-1.089-1.627-1.247a1.185,1.185,0,0,0-1.25.723,3.137,3.137,0,0,0-.181,1.535c.064,1.035,1.548,1.445,1.758,2.46.122.587.547,1.759,0,1.513-2.522-.252-3.629-1.725-4.783-3.112l-2.6-3.127a3.055,3.055,0,0,1-.671-1.085,3.014,3.014,0,0,1-.069-.865q.021-1.166.063-2.331c.025-.679.2-1.535.86-1.675.346-.073.8.054.986-.248a.686.686,0,0,0,.031-.482,4.634,4.634,0,0,1-.139-2.334c.385-1.127,1.711-1.589,2.883-1.8s2.487-.4,3.222-1.332a10.221,10.221,0,0,1,.64-.9,2.511,2.511,0,0,1,1.2-.6,6.627,6.627,0,0,1,4.358.387,3.84,3.84,0,0,0,1.758.568c.646-.041,1.2-.5,1.835-.606a2.611,2.611,0,0,1,2.522,1.507,3.166,3.166,0,0,1-.2,3.625c-.443.47-1.1.793-1.289,1.413-.075.252-.057.524-.124.778a1.405,1.405,0,0,1-1.132.979A2,2,0,0,1,760.7,248.443Z" transform="translate(-739.913 -240.169)" fill="#01044e"/><path d="M743.081,413.516a2.891,2.891,0,0,1-4.2,1.419l-14.464,7.646-.468-3.524L738,410.77a2.906,2.906,0,0,1,5.077,2.746Z" transform="translate(-712.384 -366.824)" fill="#9f616a"/><path d="M721.622,414.257a2.891,2.891,0,0,0,4.408.466l15.787,4.3-.137-4.474-15.7-4.079a2.906,2.906,0,0,0-4.353,3.79Z" transform="translate(-710.2 -366.955)" fill="#9f616a"/><path d="M777.449,353.788l-3.078-.193s-3.6,4.755-1.6,9.915c0,0-.346,18.536,7.636,17.775s10.5-.761,10.5-.761l-2.4-6.683-5.36-1.655s1.652-7.287-1.475-10.319Z" transform="translate(-772.162 -324.99)" fill="#051dde"/><path d="M698.531,347.1l.435-2.23s6.416-.151,7.684,9.571c0,0,5.769,14.55.114,16.423s-11.876,0-11.876,0l.469-6.416,6.222-1.27s-3.214-4.159-1.464-7.766Z" transform="translate(-671.017 -318.466)" fill="#051dde"/></g></g><g transform="translate(2294.539 3310.274)"><path d="M556.8,477.762l3.426.779,4.637-12.843-5.056-1.15Z" transform="translate(-510.053 -358.814)" fill="#ffb6b6"/><path d="M740.934,690.9l10.534,2.4.03-.133a4.205,4.205,0,0,0-3.167-5.033h0l-1.592-1.9-3.922.643-.92-.209Z" transform="translate(-695.117 -568.406)" fill="#01044e"/><path d="M654.124,464.229l2.958,1.894,8.715-10.511-4.367-2.8Z" transform="translate(-652.043 -352.031)" fill="#ffb6b6"/><path d="M851.506,675.037l9.1,5.825.074-.115a4.205,4.205,0,0,0-1.274-5.809h0l-.855-2.325-3.908-.724-.794-.508Z" transform="translate(-851.506 -559.82)" fill="#01044e"/><path d="M579.773,338.144l2.577,6.721,12.09,23.848-10.623,27.742-5.483-1.447,4.519-26.3-12.964-15.753-7.527,16.185-21.625,23.842-4.99-3.327,16.08-24.674L562.534,333.7Z" transform="translate(-530.741 -283.169)" fill="#01044e"/><path d="M750.9,454.5l4.242-4.558,7.278-1,8.917,6.243-.09,6.91-4.408,16.282s1.679,11.7-3.011,11.581-7.246-2.455-9.156-1.98-10.03,2.5-10.544.38-3.25-.6-3.13-2.61,7.4-16.475,7.4-16.475l-1.275-10.184a4.089,4.089,0,0,1,3.549-4.565Q750.784,454.511,750.9,454.5Z" transform="translate(-714.868 -431.232)" fill="#051dde"/><path d="M807.24,512.131a2.6,2.6,0,0,0,3.137-2.457l19.506-7.68-3.712-3.041-18.493,8.008a2.613,2.613,0,0,0-.438,5.171Z" transform="translate(-800.49 -460.141)" fill="#ffb6b6"/><path d="M806.178,464.123a3.847,3.847,0,0,1,3.731,3.757c.408,3.782-6.559,13.375-7.636,14.955-.337.495-1.786,1.057-3.617,1.6-.822.242-1.721.48-2.631.7-.527.13-.762,1-1.283,1.123s-1.323-.515-1.811-.409c-2.316.5-4.147.838-4.147.838l-4.331-2.951c2.185-3.226,6.364-4.545,11.1-5.334Z" transform="translate(-771.799 -440.007)" fill="#051dde"/><path d="M696.4,418.341a2.6,2.6,0,0,1-3.409,2.063L678.9,435.927l-1.53-4.548,14.037-14.459a2.613,2.613,0,0,1,4.991,1.421Z" transform="translate(-613.127 -411.79)" fill="#ffb6b6"/><path d="M698.009,442.014a3.847,3.847,0,0,0,2.192,4.82c3.393,1.721,14.831-1.4,16.69-1.845.582-.14,1.621-1.3,2.774-2.817.518-.683,1.058-1.44,1.591-2.211.308-.447,1.208-.358,1.5-.8s-.013-1.42.259-1.838c1.29-1.988,2.252-3.581,2.252-3.581l-1.227-5.1c-3.79.9-6.5,4.342-8.918,8.491Z" transform="translate(-650.588 -419.496)" fill="#051dde"/><ellipse cx="6.924" cy="6.924" rx="6.924" ry="6.924" transform="translate(36.839 2.704)" fill="#ffb6b6"/><path d="M754.322,412.627a3.57,3.57,0,0,1,3.42-1.667,4.671,4.671,0,0,1,7.826-2.724,1.452,1.452,0,0,1,1.42-.142,2.994,2.994,0,0,1,1.154.926,6.721,6.721,0,0,1,.94,6.838c.162-.589-.428-1.143-1.024-1.275s-1.221-.007-1.826-.093c-.775-.11-1.471-.56-2.247-.661a5.114,5.114,0,0,0-1.944.25,5.272,5.272,0,0,1-1.943.261c-.653-.078-1.494,2.4-1.483,4.141,0,.33-.066.754-.389.825-.4.086-.628-.462-1.006-.612a.7.7,0,0,0-.859.457,1.141,1.141,0,0,0,.218,1.022,3.372,3.372,0,0,0,.818.709l-.156.13a.928.928,0,0,1-1.171.145,2.526,2.526,0,0,1-.841-.957,11.262,11.262,0,0,1-1.542-3.694,5.381,5.381,0,0,1,.633-3.878Z" transform="translate(-718.463 -406.963)" fill="#01044e"/></g><g transform="translate(1842 3427.757)"><path d="M282.481,236.914l1.243,11.211,15.874.273-1.916-13.411Z" transform="translate(-53.051 -83.967)" fill="#ffb7b7"/><path d="M353.329,487.267a2.566,2.566,0,0,0-.7-3.873l.737-5.818-3.427-1.31-.925,8.231a2.58,2.58,0,0,0,4.311,2.771Z" transform="translate(-131.051 -309.385)" fill="#ffb7b7"/><path d="M351.975,478.96h3.356l1.6-12.943h-4.953Z" transform="translate(-100.829 -242.805)" fill="#ffb7b7"/><path d="M453.032,694.453h6.608a4.211,4.211,0,0,1,4.211,4.211v.137H453.032Z" transform="translate(-202.743 -459.394)" fill="#01044e"/><path d="M229.352,478.96h3.355l1.6-12.943h-4.952Z" transform="translate(-16.523 -242.805)" fill="#ffb7b7"/><path d="M330.408,694.453h6.608a4.211,4.211,0,0,1,4.211,4.211v.137H330.409Z" transform="translate(-118.436 -459.394)" fill="#01044e"/><path d="M348.605,415.639l1.476-17.073,4.306-15.593a5.89,5.89,0,0,1,5.084-4.27l.14-.014.765,11.7-5.506,11.314-1.82,13.573Z" transform="translate(-130.947 -242.3)" fill="#051dde"/><path d="M345.584,446.677l-2.26,4.068a37.434,37.434,0,0,0-9.493,22.677l-8.183,46.853,7.584-.187,15.355-43.913,10.861,18.633,5.431,24.344,8.614-1.592-3.839-28.277-7.4-26.31-.749-14.326Z" transform="translate(-115.163 -289.043)" fill="#01044e"/><circle cx="6.722" cy="6.722" r="6.722" transform="translate(231.531 117.296)" fill="#ffb7b7"/><path d="M315.514,329.81c1.249-2.44,1.675-5.21,2.636-7.776s2.708-5.113,5.355-5.82c1.5-.4,3.1-.156,4.641-.347a4.126,4.126,0,0,0,3.336-2.065,8.508,8.508,0,0,1,.438-3.53,10.587,10.587,0,0,1,5.966-6.042,9.756,9.756,0,0,1,6.934-.377,6.844,6.844,0,0,1,4.506,5.06,5.3,5.3,0,0,1-3.1,5.768c-1.592.6-3.643.4-4.683,1.742-1.053,1.363-.3,3.348.658,4.78l-.065.066c-3.125.037-6.5-.567-8.655-2.833a6.856,6.856,0,0,1-.643-.791c-.066.106-.135.209-.209.307a11.622,11.622,0,0,1-4.4,3.051,10.007,10.007,0,0,0-4.264,3.206c-1.755,2.743-.6,6.436-1.606,9.534a7.043,7.043,0,0,1-13.245.43C311.844,334.4,314.265,332.25,315.514,329.81Z" transform="translate(-103.795 -190.523)" fill="#01044e"/><path d="M449.552,491.813a2.566,2.566,0,0,0-2.409-3.112l-2.038-5.5-3.644.423,2.987,7.726a2.58,2.58,0,0,0,5.1.462Z" transform="translate(-194.788 -314.154)" fill="#ffb7b7"/><path d="M380.284,388.858l-1.945-9.359-.611-7.129a16.785,16.785,0,0,1,3.181-11.349l.622-.849L392,363.894l5.1,6.728a4.56,4.56,0,0,1,.336,6.516l-.1,9.456-.118.016Z" transform="translate(-150.927 -229.57)" fill="#051dde"/><path d="M427.6,413.51l-7.786-17.94-1.131-16.436-.228-3.454a3.3,3.3,0,0,1,6.567-.655l2.451,18.323,4.219,18.279Z" transform="translate(-178.965 -237.811)" fill="#051dde"/></g><g transform="translate(2083.54 3611.834)"><path d="M145.588,430.092h-2.6l-1.237-10.029h3.837Z" transform="translate(-12.673 -126.417)" fill="#9e616a"/><path d="M272.032,664.507h-8.384V664.4a3.263,3.263,0,0,1,3.263-3.263h5.121Z" transform="translate(-138.454 -358.312)" fill="#01044e"/><path d="M161.121,425.493l-2.4.992-4.969-8.8,3.547-1.464Z" transform="translate(-18.986 -124.396)" fill="#9e616a"/><path d="M293.8,658.413l-7.75,3.2-.04-.1a3.263,3.263,0,0,1,1.771-4.261h0l4.733-1.953Z" transform="translate(-150.09 -355.239)" fill="#01044e"/><path d="M266.211,503.746s9.647,4.572,3.237,25.515l-.488,16.568-3.2,30.459-5.2-.331-2.3-29.322-7.669-24.219,1.522-11.7Z" transform="translate(-131.583 -275.491)" fill="#01044e"/><path d="M250.775,482.572l.784-15.206c-5.335-8.959.133-14.077.577-14.47l4.889-7.139,4.277-1.174a5.636,5.636,0,0,1,7.128,5.478l-.192,24.915Z" transform="translate(-130.871 -244.253)" fill="#051dde"/><path d="M142.984,381.484l5.376,22.3,6.161-2.5L146.172,381.1Z" transform="translate(-13.321 -105.912)" fill="#01044e"/><path d="M251.56,528.364a2.705,2.705,0,0,0,1.212-3.968l5.451-7.72-4.541-.26-4.83,7.274a2.72,2.72,0,0,0,2.709,4.674Z" transform="translate(-130.094 -282.159)" fill="#9e616a"/><path d="M124.845,239.482l2.383,16.813L120.5,268.972l5.633,3.526,9.7-14.347-4.064-20.328Z" transform="translate(-1.489 -30.521)" fill="#051dde"/><circle cx="7.192" cy="7.192" r="7.192" transform="translate(121.107 183.153)" fill="#9e616a"/><path d="M271.868,438.864c.269-4.024,1.953-7.792,3.311-11.589s2.412-7.93,1.385-11.83a18.183,18.183,0,0,0-2.789-5.589c-2.247-3.258-5.111-6.288-8.823-7.661s-8.389-.689-10.831,2.426a6.038,6.038,0,0,0-1.363,3.887,4.335,4.335,0,0,0,1.965,3.526,17.863,17.863,0,0,1,2.1,1.1c.617.5.955,1.508.394,2.068l.224.11c2.012.433,3.134,2.713,3.117,4.771s-.854,4.006-1.372,6-.669,4.275.527,5.95,3.487,2.4,4.355,4.25c1.184,2.528-.962,5.422-.7,8.2.247,2.669,2.749,4.684,5.366,5.259s5.336.031,7.961-.513C273.121,447.354,271.6,442.888,271.868,438.864Z" transform="translate(-132.724 -221.7)" fill="#01044e"/></g></g></svg>